<svg width="34" height="34" viewBox="0 0 34 34" fill="none" xmlns="http://www.w3.org/2000/svg">
<g clip-path="url(#clip0_250_2)">
<path d="M16.7857 31.5714C25.5039 31.5714 32.5714 24.5039 32.5714 15.7857C32.5714 7.0675 25.5039 0 16.7857 0C8.0675 0 1 7.0675 1 15.7857C1 24.5039 8.0675 31.5714 16.7857 31.5714Z" fill="#D53434" stroke="white" stroke-linecap="round" stroke-linejoin="round"/>
<path d="M9.5 18.2143L14.4786 22.1971C14.6123 22.3073 14.7688 22.3862 14.9369 22.4282C15.1049 22.4702 15.2802 22.4742 15.45 22.44C15.6214 22.4078 15.7839 22.3391 15.9264 22.2386C16.0689 22.138 16.188 22.0079 16.2757 21.8571L24.0714 8.5" stroke="white" stroke-width="2" stroke-linecap="round" stroke-linejoin="round"/>
</g>
<defs>
<clipPath id="clip0_250_2">
<rect width="34" height="34" fill="white"/>
</clipPath>
</defs>
</svg>
