<svg width="100" height="17" viewBox="0 0 100 17" fill="none" xmlns="http://www.w3.org/2000/svg">
<g clip-path="url(#clip0_250_76)">
<path d="M8.91667 1.29762L10.8095 5.11905C10.8526 5.21604 10.9203 5.30006 11.0059 5.36272C11.0916 5.42539 11.1921 5.46451 11.2976 5.47619L15.4762 6.09524C15.5972 6.11079 15.7112 6.16044 15.8051 6.2384C15.8989 6.31636 15.9686 6.4194 16.0061 6.53549C16.0435 6.65159 16.0471 6.77594 16.0166 6.89403C15.986 7.01211 15.9224 7.11906 15.8333 7.20238L12.8214 10.1905C12.7446 10.2623 12.6869 10.3522 12.6536 10.452C12.6203 10.5518 12.6125 10.6583 12.631 10.7619L13.3571 14.9643C13.3782 15.085 13.3649 15.2093 13.3188 15.3228C13.2727 15.4364 13.1956 15.5348 13.0964 15.6067C12.9972 15.6787 12.8797 15.7213 12.7575 15.7298C12.6352 15.7383 12.513 15.7123 12.4048 15.6548L8.64286 13.6667C8.54653 13.6194 8.44065 13.5948 8.33334 13.5948C8.22603 13.5948 8.12014 13.6194 8.02381 13.6667L4.26191 15.6548C4.15368 15.7123 4.03147 15.7383 3.9092 15.7298C3.78693 15.7213 3.66949 15.6787 3.57026 15.6067C3.47103 15.5348 3.39398 15.4364 3.34788 15.3228C3.30179 15.2093 3.2885 15.085 3.30953 14.9643L4.03572 10.7143C4.05412 10.6107 4.04634 10.5042 4.01307 10.4044C3.9798 10.3046 3.92211 10.2147 3.84524 10.1429L0.797622 7.20238C0.707459 7.11678 0.644051 7.00688 0.615079 6.88597C0.586108 6.76507 0.592817 6.63836 0.634392 6.52119C0.675968 6.40402 0.750627 6.30142 0.849325 6.22582C0.948024 6.15022 1.06653 6.10486 1.19048 6.09524L5.36905 5.47619C5.47452 5.46451 5.57509 5.42539 5.66073 5.36272C5.74637 5.30006 5.8141 5.21604 5.85715 5.11905L7.75 1.29762C7.80155 1.18632 7.88386 1.09209 7.98722 1.02605C8.09058 0.960017 8.21068 0.924927 8.33334 0.924927C8.45599 0.924927 8.57609 0.960017 8.67945 1.02605C8.78281 1.09209 8.86512 1.18632 8.91667 1.29762Z" fill="#AE2720" stroke="#252525" stroke-linecap="round" stroke-linejoin="round"/>
</g>
<g clip-path="url(#clip1_250_76)">
<path d="M29.75 1.29762L31.6429 5.11905C31.6859 5.21604 31.7536 5.30006 31.8393 5.36272C31.9249 5.42539 32.0255 5.46451 32.131 5.47619L36.3095 6.09524C36.4305 6.11079 36.5446 6.16044 36.6384 6.2384C36.7322 6.31636 36.8019 6.4194 36.8394 6.53549C36.8768 6.65159 36.8805 6.77594 36.8499 6.89403C36.8193 7.01211 36.7558 7.11906 36.6667 7.20238L33.6548 10.1905C33.5779 10.2623 33.5202 10.3522 33.4869 10.452C33.4537 10.5518 33.4459 10.6583 33.4643 10.7619L34.1905 14.9643C34.2115 15.085 34.1982 15.2093 34.1521 15.3228C34.106 15.4364 34.029 15.5348 33.9298 15.6067C33.8305 15.6787 33.7131 15.7213 33.5908 15.7298C33.4685 15.7383 33.3463 15.7123 33.2381 15.6548L29.4762 13.6667C29.3799 13.6194 29.274 13.5948 29.1667 13.5948C29.0594 13.5948 28.9535 13.6194 28.8572 13.6667L25.0953 15.6548C24.987 15.7123 24.8648 15.7383 24.7425 15.7298C24.6203 15.7213 24.5028 15.6787 24.4036 15.6067C24.3044 15.5348 24.2273 15.4364 24.1812 15.3228C24.1351 15.2093 24.1218 15.085 24.1429 14.9643L24.8691 10.7143C24.8875 10.6107 24.8797 10.5042 24.8464 10.4044C24.8131 10.3046 24.7555 10.2147 24.6786 10.1429L21.631 7.20238C21.5408 7.11678 21.4774 7.00688 21.4484 6.88597C21.4195 6.76507 21.4262 6.63836 21.4677 6.52119C21.5093 6.40402 21.584 6.30142 21.6827 6.22582C21.7814 6.15022 21.8999 6.10486 22.0238 6.09524L26.2024 5.47619C26.3079 5.46451 26.4084 5.42539 26.4941 5.36272C26.5797 5.30006 26.6474 5.21604 26.6905 5.11905L28.5833 1.29762C28.6349 1.18632 28.7172 1.09209 28.8206 1.02605C28.9239 0.960017 29.044 0.924927 29.1667 0.924927C29.2893 0.924927 29.4094 0.960017 29.5128 1.02605C29.6162 1.09209 29.6985 1.18632 29.75 1.29762Z" fill="#AE2720" stroke="#252525" stroke-linecap="round" stroke-linejoin="round"/>
</g>
<g clip-path="url(#clip2_250_76)">
<path d="M50.5833 1.29762L52.4762 5.11905C52.5192 5.21604 52.587 5.30006 52.6726 5.36272C52.7582 5.42539 52.8588 5.46451 52.9643 5.47619L57.1428 6.09524C57.2638 6.11079 57.3779 6.16044 57.4717 6.2384C57.5656 6.31636 57.6353 6.4194 57.6727 6.53549C57.7102 6.65159 57.7138 6.77594 57.6832 6.89403C57.6526 7.01211 57.5891 7.11906 57.5 7.20238L54.4881 10.1905C54.4112 10.2623 54.3535 10.3522 54.3203 10.452C54.287 10.5518 54.2792 10.6583 54.2976 10.7619L55.0238 14.9643C55.0448 15.085 55.0315 15.2093 54.9854 15.3228C54.9393 15.4364 54.8623 15.5348 54.7631 15.6067C54.6638 15.6787 54.5464 15.7213 54.4241 15.7298C54.3019 15.7383 54.1796 15.7123 54.0714 15.6548L50.3095 13.6667C50.2132 13.6194 50.1073 13.5948 50 13.5948C49.8927 13.5948 49.7868 13.6194 49.6905 13.6667L45.9286 15.6548C45.8203 15.7123 45.6981 15.7383 45.5759 15.7298C45.4536 15.7213 45.3361 15.6787 45.2369 15.6067C45.1377 15.5348 45.0606 15.4364 45.0145 15.3228C44.9684 15.2093 44.9552 15.085 44.9762 14.9643L45.7024 10.7143C45.7208 10.6107 45.713 10.5042 45.6797 10.4044C45.6465 10.3046 45.5888 10.2147 45.5119 10.1429L42.4643 7.20238C42.3741 7.11678 42.3107 7.00688 42.2817 6.88597C42.2528 6.76507 42.2595 6.63836 42.301 6.52119C42.3426 6.40402 42.4173 6.30142 42.516 6.22582C42.6147 6.15022 42.7332 6.10486 42.8571 6.09524L47.0357 5.47619C47.1412 5.46451 47.2417 5.42539 47.3274 5.36272C47.413 5.30006 47.4808 5.21604 47.5238 5.11905L49.4167 1.29762C49.4682 1.18632 49.5505 1.09209 49.6539 1.02605C49.7572 0.960017 49.8773 0.924927 50 0.924927C50.1226 0.924927 50.2427 0.960017 50.3461 1.02605C50.4495 1.09209 50.5318 1.18632 50.5833 1.29762Z" fill="#AE2720" stroke="#252525" stroke-linecap="round" stroke-linejoin="round"/>
</g>
<g clip-path="url(#clip3_250_76)">
<path d="M71.4167 1.29762L73.3095 5.11905C73.3526 5.21604 73.4203 5.30006 73.5059 5.36272C73.5916 5.42539 73.6921 5.46451 73.7976 5.47619L77.9762 6.09524C78.0972 6.11079 78.2112 6.16044 78.3051 6.2384C78.3989 6.31636 78.4686 6.4194 78.5061 6.53549C78.5435 6.65159 78.5471 6.77594 78.5166 6.89403C78.486 7.01211 78.4224 7.11906 78.3333 7.20238L75.3214 10.1905C75.2446 10.2623 75.1869 10.3522 75.1536 10.452C75.1203 10.5518 75.1125 10.6583 75.131 10.7619L75.8571 14.9643C75.8782 15.085 75.8649 15.2093 75.8188 15.3228C75.7727 15.4364 75.6956 15.5348 75.5964 15.6067C75.4972 15.6787 75.3797 15.7213 75.2575 15.7298C75.1352 15.7383 75.013 15.7123 74.9048 15.6548L71.1429 13.6667C71.0465 13.6194 70.9406 13.5948 70.8333 13.5948C70.726 13.5948 70.6201 13.6194 70.5238 13.6667L66.7619 15.6548C66.6537 15.7123 66.5315 15.7383 66.4092 15.7298C66.2869 15.7213 66.1695 15.6787 66.0703 15.6067C65.971 15.5348 65.894 15.4364 65.8479 15.3228C65.8018 15.2093 65.7885 15.085 65.8095 14.9643L66.5357 10.7143C66.5541 10.6107 66.5463 10.5042 66.5131 10.4044C66.4798 10.3046 66.4221 10.2147 66.3452 10.1429L63.2976 7.20238C63.2075 7.11678 63.1441 7.00688 63.1151 6.88597C63.0861 6.76507 63.0928 6.63836 63.1344 6.52119C63.176 6.40402 63.2506 6.30142 63.3493 6.22582C63.448 6.15022 63.5665 6.10486 63.6905 6.09524L67.8691 5.47619C67.9745 5.46451 68.0751 5.42539 68.1607 5.36272C68.2464 5.30006 68.3141 5.21604 68.3571 5.11905L70.25 1.29762C70.3015 1.18632 70.3839 1.09209 70.4872 1.02605C70.5906 0.960017 70.7107 0.924927 70.8333 0.924927C70.956 0.924927 71.0761 0.960017 71.1795 1.02605C71.2828 1.09209 71.3651 1.18632 71.4167 1.29762Z" fill="#AE2720" stroke="#252525" stroke-linecap="round" stroke-linejoin="round"/>
</g>
<g clip-path="url(#clip4_250_76)">
<path d="M92.25 1.29762L94.1429 5.11905C94.1859 5.21604 94.2536 5.30006 94.3393 5.36272C94.4249 5.42539 94.5255 5.46451 94.631 5.47619L98.8095 6.09524C98.9305 6.11079 99.0446 6.16044 99.1384 6.2384C99.2322 6.31636 99.3019 6.4194 99.3394 6.53549C99.3768 6.65159 99.3805 6.77594 99.3499 6.89403C99.3193 7.01211 99.2558 7.11906 99.1667 7.20238L96.1548 10.1905C96.0779 10.2623 96.0202 10.3522 95.9869 10.452C95.9537 10.5518 95.9459 10.6583 95.9643 10.7619L96.6905 14.9643C96.7115 15.085 96.6982 15.2093 96.6521 15.3228C96.606 15.4364 96.529 15.5348 96.4298 15.6067C96.3305 15.6787 96.2131 15.7213 96.0908 15.7298C95.9685 15.7383 95.8463 15.7123 95.7381 15.6548L91.9762 13.6667C91.8799 13.6194 91.774 13.5948 91.6667 13.5948C91.5594 13.5948 91.4535 13.6194 91.3572 13.6667L87.5953 15.6548C87.487 15.7123 87.3648 15.7383 87.2425 15.7298C87.1203 15.7213 87.0028 15.6787 86.9036 15.6067C86.8044 15.5348 86.7273 15.4364 86.6812 15.3228C86.6351 15.2093 86.6218 15.085 86.6429 14.9643L87.3691 10.7143C87.3875 10.6107 87.3797 10.5042 87.3464 10.4044C87.3131 10.3046 87.2555 10.2147 87.1786 10.1429L84.131 7.20238C84.0408 7.11678 83.9774 7.00688 83.9484 6.88597C83.9195 6.76507 83.9262 6.63836 83.9677 6.52119C84.0093 6.40402 84.084 6.30142 84.1827 6.22582C84.2814 6.15022 84.3999 6.10486 84.5238 6.09524L88.7024 5.47619C88.8079 5.46451 88.9084 5.42539 88.9941 5.36272C89.0797 5.30006 89.1474 5.21604 89.1905 5.11905L91.0833 1.29762C91.1349 1.18632 91.2172 1.09209 91.3206 1.02605C91.4239 0.960017 91.544 0.924927 91.6667 0.924927C91.7893 0.924927 91.9094 0.960017 92.0128 1.02605C92.1162 1.09209 92.1985 1.18632 92.25 1.29762Z" fill="#AE2720" stroke="#252525" stroke-linecap="round" stroke-linejoin="round"/>
</g>
<defs>
<clipPath id="clip0_250_76">
<rect width="16.6667" height="16.6667" fill="white"/>
</clipPath>
<clipPath id="clip1_250_76">
<rect width="16.6667" height="16.6667" fill="white" transform="translate(20.8333)"/>
</clipPath>
<clipPath id="clip2_250_76">
<rect width="16.6667" height="16.6667" fill="white" transform="translate(41.6667)"/>
</clipPath>
<clipPath id="clip3_250_76">
<rect width="16.6667" height="16.6667" fill="white" transform="translate(62.5)"/>
</clipPath>
<clipPath id="clip4_250_76">
<rect width="16.6667" height="16.6667" fill="white" transform="translate(83.3333)"/>
</clipPath>
</defs>
</svg>
